<?xml version="1.0"?>
<svg xmlns="http://www.w3.org/2000/svg" height="512px" viewBox="0 0 466 466" width="512px" class=""><g><path d="m361.394531 233c0 70.910156-57.484375 128.394531-128.394531 128.394531s-128.394531-57.484375-128.394531-128.394531 57.484375-128.394531 128.394531-128.394531 128.394531 57.484375 128.394531 128.394531zm0 0" data-original="#000000" class="active-path" data-old_color="#000000" fill="#FFFFFF"/><path d="m225 8v51c0 4.417969 3.582031 8 8 8s8-3.582031 8-8v-51c0-4.417969-3.582031-8-8-8s-8 3.582031-8 8zm0 0" data-original="#000000" class="active-path" data-old_color="#000000" fill="#FFFFFF"/><path d="m233 399c-4.417969 0-8 3.582031-8 8v51c0 4.417969 3.582031 8 8 8s8-3.582031 8-8v-51c0-4.417969-3.582031-8-8-8zm0 0" data-original="#000000" class="active-path" data-old_color="#000000" fill="#FFFFFF"/><path d="m458 225h-51c-4.417969 0-8 3.582031-8 8s3.582031 8 8 8h51c4.417969 0 8-3.582031 8-8s-3.582031-8-8-8zm0 0" data-original="#000000" class="active-path" data-old_color="#000000" fill="#FFFFFF"/><path d="m59 225h-51c-4.417969 0-8 3.582031-8 8s3.582031 8 8 8h51c4.417969 0 8-3.582031 8-8s-3.582031-8-8-8zm0 0" data-original="#000000" class="active-path" data-old_color="#000000" fill="#FFFFFF"/><path d="m356.1875 117.8125c2.121094.003906 4.160156-.839844 5.65625-2.34375l35.472656-35.46875c3.128906-3.125 3.128906-8.191406 0-11.316406-3.125-3.128906-8.191406-3.128906-11.316406 0l-35.472656 35.472656c-2.289063 2.285156-2.972656 5.726562-1.734375 8.71875 1.238281 2.988281 4.15625 4.9375 7.390625 4.9375zm0 0" data-original="#000000" class="active-path" data-old_color="#000000" fill="#FFFFFF"/><path d="m104.15625 350.53125-35.472656 35.46875c-3.128906 3.125-3.128906 8.191406 0 11.316406 3.125 3.128906 8.191406 3.128906 11.316406 0l35.472656-35.472656c3.125-3.121094 3.125-8.1875 0-11.3125s-8.1875-3.125-11.3125 0zm0 0" data-original="#000000" class="active-path" data-old_color="#000000" fill="#FFFFFF"/><path d="m361.84375 350.53125c-3.121094-3.125-8.1875-3.125-11.3125 0s-3.125 8.191406 0 11.3125l35.46875 35.472656c3.125 3.128906 8.191406 3.128906 11.316406 0 3.128906-3.125 3.128906-8.191406 0-11.316406zm0 0" data-original="#000000" class="active-path" data-old_color="#000000" fill="#FFFFFF"/><path d="m68.683594 68.683594c-3.125 3.121094-3.125 8.1875 0 11.3125l35.472656 35.472656c3.121094 3.125 8.1875 3.125 11.3125 0s3.125-8.191406 0-11.3125l-35.46875-35.472656c-3.125-3.128906-8.191406-3.128906-11.316406 0zm0 0" data-original="#000000" class="active-path" data-old_color="#000000" fill="#FFFFFF"/></g> </svg>
